<svg version="1.1" xmlns="http://www.w3.org/2000/svg" style="display: block;" viewBox="250 600 1600 750" width="1024" height="480" preserveAspectRatio="xMidYMid meet">
<defs>
	<linearGradient id="Gradient1" gradientUnits="userSpaceOnUse" x1="641.059" y1="1275.08" x2="644.287" y2="1144.72">
		<stop class="stop0" offset="0" stop-opacity="1" stop-color="rgb(247,40,102)"/>
		<stop class="stop1" offset="1" stop-opacity="1" stop-color="rgb(255,86,163)"/>
	</linearGradient>
	<linearGradient id="Gradient2" gradientUnits="userSpaceOnUse" x1="708.713" y1="1116.09" x2="705.31" y2="879.55">
		<stop class="stop0" offset="0" stop-opacity="1" stop-color="rgb(0,107,210)"/>
		<stop class="stop1" offset="1" stop-opacity="1" stop-color="rgb(22,220,246)"/>
	</linearGradient>
	<linearGradient id="Gradient3" gradientUnits="userSpaceOnUse" x1="400.547" y1="958.234" x2="420.019" y2="969.515">
		<stop class="stop0" offset="0" stop-opacity="1" stop-color="rgb(16,51,22)"/>
		<stop class="stop1" offset="1" stop-opacity="1" stop-color="rgb(28,78,37)"/>
	</linearGradient>
	<linearGradient id="Gradient4" gradientUnits="userSpaceOnUse" x1="446.71" y1="1077.9" x2="447.238" y2="925.184">
		<stop class="stop0" offset="0" stop-opacity="1" stop-color="rgb(62,207,92)"/>
		<stop class="stop1" offset="1" stop-opacity="1" stop-color="rgb(109,240,131)"/>
	</linearGradient>
	<linearGradient id="Gradient5" gradientUnits="userSpaceOnUse" x1="445.527" y1="755.285" x2="444.495" y2="706.798">
		<stop class="stop0" offset="0" stop-opacity="1" stop-color="rgb(253,132,119)"/>
		<stop class="stop1" offset="1" stop-opacity="1" stop-color="rgb(251,190,193)"/>
	</linearGradient>
	<linearGradient id="Gradient6" gradientUnits="userSpaceOnUse" x1="448.244" y1="824.475" x2="446.952" y2="710.921">
		<stop class="stop0" offset="0" stop-opacity="1" stop-color="rgb(253,62,45)"/>
		<stop class="stop1" offset="1" stop-opacity="1" stop-color="rgb(253,122,100)"/>
	</linearGradient>
	<linearGradient id="Gradient7" gradientUnits="userSpaceOnUse" x1="447.003" y1="1140.32" x2="446.819" y2="1094.01">
		<stop class="stop0" offset="0" stop-opacity="1" stop-color="rgb(91,193,245)"/>
		<stop class="stop1" offset="1" stop-opacity="1" stop-color="rgb(186,236,252)"/>
	</linearGradient>
	<linearGradient id="Gradient8" gradientUnits="userSpaceOnUse" x1="448.318" y1="1276.11" x2="445.844" y2="1101.29">
		<stop class="stop0" offset="0" stop-opacity="1" stop-color="rgb(0,91,203)"/>
		<stop class="stop1" offset="1" stop-opacity="1" stop-color="rgb(51,188,247)"/>
	</linearGradient>
	<linearGradient id="Gradient9" gradientUnits="userSpaceOnUse" x1="815.081" y1="1205.16" x2="811.889" y2="787.924">
		<stop class="stop0" offset="0" stop-opacity="1" stop-color="rgb(2,122,137)"/>
		<stop class="stop1" offset="1" stop-opacity="1" stop-color="rgb(0,228,193)"/>
	</linearGradient>
</defs>

<path transform="translate(0,0)" fill="url(#Gradient9)" d="M 771.956 798.503 C 778.178 781.428 794.819 779.046 810.803 779.26 C 829.009 779.504 843.817 777.788 855.066 794.633 C 861.208 810.518 858.809 860.337 858.742 879.784 L 858.663 995.578 L 858.782 1110.79 C 858.821 1131.4 858.946 1152.25 858.674 1172.65 C 858.501 1185.64 854.887 1201.69 840.915 1205.37 C 827.637 1208.87 795.929 1210.15 784.044 1203.97 C 777.848 1200.8 773.212 1195.25 771.208 1188.59 C 768.234 1178.86 769.574 1136.24 769.64 1123.59 L 769.839 1026.85 L 769.828 887.092 C 769.814 872.036 768.131 809.736 771.956 798.503 z"/>
<path transform="translate(0,0)" fill="rgb(6,230,187)" d="M 771.956 798.503 C 778.178 781.428 794.819 779.046 810.803 779.26 C 829.009 779.504 843.817 777.788 855.066 794.633 C 853.057 797.747 854.361 796.996 851.575 798.155 C 840.983 783.722 829.279 783.718 812.536 783.39 C 798.386 783.113 777.29 785.941 776.62 804.049 C 776.042 804.8 776.463 804.397 775.117 804.94 L 775.334 804.799 L 773.039 804.451 C 772.104 803.535 772.141 800.254 771.956 798.503 z"/>
<path transform="translate(0,0)" fill="rgb(204,253,249)" d="M 776.62 804.049 C 777.29 785.941 798.386 783.113 812.536 783.39 C 829.279 783.718 840.983 783.722 851.575 798.155 L 852.91 803.712 L 852.48 804.214 C 837.226 788.351 837.348 786.426 813.635 786.11 C 795.682 785.87 786.633 789.429 776.62 804.049 z"/>
<path transform="translate(0,0)" fill="url(#Gradient8)" d="M 392.075 1102.81 C 414.602 1089.96 436.265 1084.99 462.418 1088.89 C 473.928 1089.26 487.058 1093.96 497.039 1099.59 C 510.554 1107.12 519.429 1115.23 528.7 1127.71 C 550.147 1156.59 551.963 1199.94 534.311 1231.07 C 507.324 1278.67 440.778 1291.48 394.913 1264.69 C 373.267 1252.19 357.623 1231.44 351.561 1207.18 C 344.979 1182.01 348.909 1155.25 362.45 1133.04 C 370.254 1120.33 379.47 1110.74 392.075 1102.81 z"/>
<path transform="translate(0,0)" fill="rgb(76,195,246)" d="M 383.926 1121.71 C 413.518 1089.27 480.005 1090.49 510.813 1121.82 C 501.248 1118.78 506.386 1117.17 494.913 1120.71 C 471.209 1128.02 442.142 1125.17 417.379 1125.12 C 411.69 1125.11 398.416 1117.7 392.094 1117.47 C 389.575 1119.13 388.608 1119.84 385.803 1120.97 L 383.926 1121.71 z"/>
<path transform="translate(0,0)" fill="url(#Gradient7)" d="M 392.075 1102.81 C 414.602 1089.96 436.265 1084.99 462.418 1088.89 C 473.928 1089.26 487.058 1093.96 497.039 1099.59 C 494.08 1099.79 491.953 1099.52 489.781 1101.39 C 506.595 1110.76 517.862 1119.67 527.352 1136.79 C 529.894 1141.37 534.506 1147.19 533.445 1152.66 C 530.323 1150.25 527.904 1142.1 524.917 1137.82 C 520.484 1131.47 516.772 1126.91 510.813 1121.82 C 480.005 1090.49 413.518 1089.27 383.926 1121.71 C 375.856 1128.69 373.213 1132.41 367.404 1141.41 L 364.505 1141.01 C 372.774 1124.72 383.504 1114.98 398.237 1104.56 L 397.618 1102.93 C 395.187 1102.49 394.573 1102.65 392.075 1102.81 z"/>
<path transform="translate(0,0)" fill="rgb(76,195,246)" d="M 392.075 1102.81 C 414.602 1089.96 436.265 1084.99 462.418 1088.89 C 473.928 1089.26 487.058 1093.96 497.039 1099.59 C 494.08 1099.79 491.953 1099.52 489.781 1101.39 C 475.023 1095.33 467.711 1093.9 451.994 1092.98 C 427.619 1093.34 419.839 1094.31 398.237 1104.56 L 397.618 1102.93 C 395.187 1102.49 394.573 1102.65 392.075 1102.81 z"/>
<path transform="translate(0,0)" fill="rgb(76,195,246)" d="M 364.505 1141.01 L 367.404 1141.41 C 364.279 1147.97 362.682 1151.23 358.713 1157.28 C 360.032 1151.76 361.665 1145.91 364.505 1141.01 z"/>
<path transform="translate(0,0)" fill="rgb(18,28,40)" d="M 403.959 1199.29 C 411.541 1200.29 418.961 1210.55 425.981 1214.47 C 440.524 1222.59 459.18 1222.7 472.168 1211.57 C 476.552 1207.81 486.1 1197.45 491.637 1201.15 C 493.473 1207.22 492.188 1209.71 489.398 1215.34 C 483.404 1223.59 477.666 1228.99 467.988 1233.04 C 454.238 1238.73 438.754 1238.51 425.166 1232.45 C 413.111 1227.05 396.92 1214.13 403.959 1199.29 z"/>
<path transform="translate(0,0)" fill="rgb(18,28,40)" d="M 478.84 1139.91 C 479.622 1139.85 480.405 1139.8 481.188 1139.77 C 498.618 1139.25 498.155 1162.35 486.044 1173.55 C 469.571 1175.97 465.229 1151.78 478.84 1139.91 z"/>
<path transform="translate(0,0)" fill="rgb(18,28,40)" d="M 409.976 1139 C 428.516 1143.16 427.711 1164.88 412.777 1174.48 C 407.378 1172.94 404.598 1171.29 401.78 1166.06 C 398.912 1160.7 398.47 1154.38 400.566 1148.68 C 402.596 1143.14 404.958 1141.52 409.976 1139 z"/>
<path transform="translate(0,0)" fill="url(#Gradient6)" d="M 371.048 734.774 C 394.591 706.79 434.41 695.028 469.768 702.175 C 488.262 705.913 501.281 713.843 515.716 725.428 C 534.86 743.481 546.661 766.704 547.61 793.23 C 548.699 817.412 539.952 841.005 523.363 858.633 C 509.208 873.697 486.687 886.191 465.763 886.603 C 429.4 887.317 405.52 889.919 376.883 862.795 C 358.857 845.812 348.505 822.232 348.203 797.467 C 347.854 774.726 356.454 752.118 371.048 734.774 z"/>
<path transform="translate(0,0)" fill="rgb(254,61,47)" d="M 515.716 725.428 C 534.86 743.481 546.661 766.704 547.61 793.23 C 548.699 817.412 539.952 841.005 523.363 858.633 C 509.208 873.697 486.687 886.191 465.763 886.603 C 429.4 887.317 405.52 889.919 376.883 862.795 C 358.857 845.812 348.505 822.232 348.203 797.467 C 347.854 774.726 356.454 752.118 371.048 734.774 L 372.307 740.54 C 362.486 753.578 360.541 760.467 357.636 776.351 C 353.255 784.408 349.386 809.509 361.131 813.427 C 373.861 817.673 397.122 821.784 410.495 820.542 C 409.081 822.812 409.523 821.604 409.114 824.146 C 411.58 822.078 419.066 814.662 421.176 813.79 C 442.659 804.914 471.353 805.916 486.199 824.601 C 490.11 824.751 507.111 815.607 513.31 814.783 C 520.222 813.373 532.501 814.986 538.522 811.571 C 547.633 806.405 541.19 779.241 537.426 772.983 C 535.625 767.397 532.475 757.856 529.855 752.878 C 525.714 742.763 519.86 735.952 512.227 728.458 L 515.716 725.428 z"/>
<path transform="translate(0,0)" fill="rgb(87,37,35)" d="M 409.114 824.146 C 411.58 822.078 419.066 814.662 421.176 813.79 C 442.659 804.914 471.353 805.916 486.199 824.601 C 489.931 830.328 496.214 838.676 487.513 843.06 C 479.068 843.203 472.283 836.534 468.048 829.721 C 454.649 824.481 446.127 828.792 435.159 826.231 C 427.647 830.731 415.501 842.484 411.055 843.86 C 407.141 843.948 406.617 843.549 404.225 840.841 C 402.74 834.598 406.159 829.774 409.114 824.146 z"/>
<path transform="translate(0,0)" fill="rgb(42,20,31)" d="M 409.114 824.146 C 411.58 822.078 419.066 814.662 421.176 813.79 C 442.659 804.914 471.353 805.916 486.199 824.601 C 489.931 830.328 496.214 838.676 487.513 843.06 C 479.068 843.203 472.283 836.534 468.048 829.721 C 476.399 833.038 479.365 841.584 487.006 841.641 C 488.498 840.048 489.049 840.001 488.621 837.312 C 484.504 811.394 461.423 811.645 441.096 811.67 C 427.345 811.686 398.331 827.26 408.098 842.003 L 409.326 842.681 C 410.76 843.487 410.275 843.08 411.055 843.86 C 407.141 843.948 406.617 843.549 404.225 840.841 C 402.74 834.598 406.159 829.774 409.114 824.146 z"/>
<path transform="translate(0,0)" fill="rgb(42,20,31)" d="M 435.159 826.231 L 435.945 824.769 C 443.681 823.37 463.261 822.378 468.048 829.721 C 454.649 824.481 446.127 828.792 435.159 826.231 z"/>
<path transform="translate(0,0)" fill="url(#Gradient5)" d="M 371.048 734.774 C 394.591 706.79 434.41 695.028 469.768 702.175 C 488.262 705.913 501.281 713.843 515.716 725.428 L 512.227 728.458 C 519.86 735.952 525.714 742.763 529.855 752.878 L 525.257 752.53 C 496.515 708.758 440.043 695.924 396.146 724.978 C 385.804 731.793 377.131 740.852 370.771 751.48 C 367.321 757.216 360.613 774.216 357.636 776.351 C 360.541 760.467 362.486 753.578 372.307 740.54 L 371.048 734.774 z"/>
<path transform="translate(0,0)" fill="rgb(252,116,86)" d="M 371.048 734.774 C 394.591 706.79 434.41 695.028 469.768 702.175 C 488.262 705.913 501.281 713.843 515.716 725.428 L 512.227 728.458 C 490.785 711.424 472.547 704.303 444.659 705.383 C 414.963 706.533 390.948 717.208 372.307 740.54 L 371.048 734.774 z"/>
<path transform="translate(0,0)" fill="rgb(252,116,86)" d="M 529.855 752.878 C 532.475 757.856 535.625 767.397 537.426 772.983 L 535.13 772.511 C 532.354 768.082 527.707 757.666 525.257 752.53 L 529.855 752.878 z"/>
<path transform="translate(0,0)" fill="rgb(42,20,31)" d="M 409.134 755.965 C 431.137 756.751 427.845 779.051 412.205 788.923 C 394.556 790.517 390.216 764.35 409.134 755.965 z"/>
<path transform="translate(0,0)" fill="rgb(87,37,35)" d="M 406.303 759.175 C 426.191 755.823 426.402 775.91 413.74 785.631 C 397.701 790.917 395.624 769.684 406.303 759.175 z"/>
<path transform="translate(0,0)" fill="rgb(42,20,31)" d="M 478.996 756.014 C 498.735 755.205 504.56 778.754 487.889 789.35 C 481.459 788.914 477.629 787.394 473.694 781.915 C 470.579 777.513 469.464 772.002 470.622 766.735 C 471.868 761.004 474.377 759.052 478.996 756.014 z"/>
<path transform="translate(0,0)" fill="rgb(87,37,35)" d="M 477.664 759.198 C 495.424 756.004 500.003 774.774 489.39 786.156 C 473.487 788.308 467.485 770.264 477.664 759.198 z"/>
<path transform="translate(0,0)" fill="url(#Gradient4)" d="M 376.659 923.999 C 377.648 922.962 378.664 921.951 379.707 920.967 C 416.048 886.356 485.568 887.258 519.821 924.675 C 533.672 936.239 543.322 958.394 545.916 976.267 C 549.738 1002.6 543.475 1030.75 525.834 1051.29 C 512.407 1066.92 493.327 1078.88 472.713 1081.74 C 454.98 1082.65 452.71 1077.72 431.144 1081.13 C 408.515 1086.93 373.608 1061.82 363.27 1042.19 C 354.556 1035.49 348.813 1002.85 348.817 991.564 C 348.65 966.218 358.683 941.869 376.659 923.999 z"/>
<path transform="translate(0,0)" fill="rgb(139,245,153)" d="M 376.659 923.999 C 377.648 922.962 378.664 921.951 379.707 920.967 C 416.048 886.356 485.568 887.258 519.821 924.675 C 517.092 925.349 517.26 925.265 514.472 924.724 L 513.08 925.324 C 519.786 932.42 523.002 936.033 528.47 944.101 L 526.643 946.419 C 523.939 941.637 520.599 937.99 517.086 933.771 C 515.064 932.666 508.031 927.995 506.838 928.241 C 489.677 931.79 476.212 932.482 458.889 932.609 C 432.764 932.802 416.801 932.587 391.755 924.885 C 388.119 927.445 387.073 927.877 382.948 929.711 C 373.26 938.108 371.711 945.892 364.047 953.195 L 363.441 952.437 C 365.38 946.225 374.633 933.493 379.011 928.401 L 376.659 923.999 z"/>
<path transform="translate(0,0)" fill="rgb(203,252,213)" d="M 376.659 923.999 C 377.648 922.962 378.664 921.951 379.707 920.967 C 416.048 886.356 485.568 887.258 519.821 924.675 C 517.092 925.349 517.26 925.265 514.472 924.724 L 513.08 925.324 C 519.786 932.42 523.002 936.033 528.47 944.101 L 526.643 946.419 C 523.939 941.637 520.599 937.99 517.086 933.771 C 488.874 897.705 414.041 896.227 382.948 929.711 C 373.26 938.108 371.711 945.892 364.047 953.195 L 363.441 952.437 C 365.38 946.225 374.633 933.493 379.011 928.401 L 376.659 923.999 z"/>
<path transform="translate(0,0)" fill="rgb(139,245,153)" d="M 376.659 923.999 C 377.648 922.962 378.664 921.951 379.707 920.967 C 416.048 886.356 485.568 887.258 519.821 924.675 C 517.092 925.349 517.26 925.265 514.472 924.724 L 513.08 925.324 C 474.595 891.8 415.184 891.36 379.011 928.401 L 376.659 923.999 z"/>
<path transform="translate(0,0)" fill="rgb(68,203,86)" d="M 363.27 1042.19 L 364.294 1042.89 C 376.29 1051.17 381.459 1061.15 396.228 1069.18 C 406.316 1074.67 425.105 1076.9 431.144 1081.13 C 408.515 1086.93 373.608 1061.82 363.27 1042.19 z"/>
<path transform="translate(0,0)" fill="rgb(139,245,153)" d="M 528.47 944.101 C 531.22 948.488 531.972 949.311 533.343 954.168 L 532.852 955.984 C 529.958 954.46 527.97 949.554 526.643 946.419 L 528.47 944.101 z"/>
<path transform="translate(0,0)" fill="rgb(23,70,30)" d="M 405.268 1023.19 C 402.898 1018.19 400.006 1013.94 401.63 1008.66 C 404.279 1006.38 402.814 1007 406.057 1006.49 C 420.377 1017.95 429.744 1027.51 449.346 1027.14 C 468.855 1026.77 482.062 1006.53 490.565 1006.6 C 495.204 1013.95 488.171 1020.86 486.876 1025.97 C 486.563 1028.53 486.147 1029.69 484.314 1031.7 C 466.938 1050.83 430.963 1050.47 411.956 1033.97 C 408.643 1031.1 405.482 1027.54 405.268 1023.19 z"/>
<path transform="translate(0,0)" fill="rgb(139,245,153)" d="M 405.268 1023.19 C 425.941 1047.96 458.379 1051.67 482.819 1029.83 C 484.208 1028.59 485.561 1027.3 486.876 1025.97 C 486.563 1028.53 486.147 1029.69 484.314 1031.7 C 466.938 1050.83 430.963 1050.47 411.956 1033.97 C 408.643 1031.1 405.482 1027.54 405.268 1023.19 z"/>
<path transform="translate(0,0)" fill="rgb(23,70,30)" d="M 483.189 948.033 C 499.681 951.976 496.951 974.365 482.606 982.416 C 467.649 975.148 465.626 953.111 483.189 948.033 z"/>
<path transform="translate(0,0)" fill="url(#Gradient3)" d="M 409.681 947.947 C 428.184 951.757 425.53 971.766 412.795 982.19 C 407.352 980.663 404.502 978.876 401.847 973.684 C 399.28 968.739 398.85 962.958 400.658 957.687 C 402.481 952.371 404.874 950.299 409.681 947.947 z"/>
<path transform="translate(0,0)" fill="rgb(254,254,254)" d="M 1035.69 1002.97 C 1063.87 1003.17 1124.28 998.803 1147.55 1009.26 C 1159.18 1014.49 1168.96 1023.6 1173.29 1035.79 C 1177.3 1047.07 1177.35 1065.05 1171.85 1075.95 C 1165.79 1087.99 1154.93 1093.27 1142.7 1097.11 C 1180.17 1106.64 1193.47 1132.07 1181.3 1168.28 C 1161.93 1208.31 1126.57 1204.43 1088.62 1204.41 L 1035.71 1204.54 C 1036.68 1138.38 1035.93 1069.26 1035.69 1002.97 z"/>
<path transform="translate(0,0)" fill="rgb(18,28,40)" d="M 1076.6 1115.99 C 1098.2 1115.8 1141.71 1110.45 1145.37 1139.41 C 1146.62 1149.29 1143.94 1155.54 1138.1 1163.28 C 1125.84 1173.66 1093.59 1170.48 1076.32 1170.43 C 1076.28 1152.29 1076.37 1134.14 1076.6 1115.99 z"/>
<path transform="translate(0,0)" fill="rgb(18,28,40)" d="M 1076.07 1037.14 C 1094.59 1037.05 1133.76 1032.12 1136.91 1056.97 C 1138.1 1066.37 1136.02 1072.15 1130.19 1079.33 C 1116.98 1088.7 1092.63 1086.12 1076.33 1085.94 C 1076.37 1070.38 1076.8 1052.51 1076.07 1037.14 z"/>
<path transform="translate(0,0)" fill="url(#Gradient2)" d="M 670.173 872.741 C 682.461 857.934 710.266 860.335 728.008 862.307 C 743.787 866.337 750.785 875.888 750.904 892.147 L 750.89 1018.5 C 750.913 1041.53 751.133 1064.88 750.637 1087.67 C 749.945 1119.53 726.226 1118.48 701.636 1117.97 C 687.783 1118.66 669.378 1114.08 666.167 1098.04 C 663.166 1083.05 664.169 1063.96 664.167 1048.38 L 664.212 972.495 L 664.161 918.828 C 664.161 903.424 661.986 885.957 670.173 872.741 z"/>
<path transform="translate(0,0)" fill="rgb(23,220,245)" d="M 670.173 872.741 C 682.461 857.934 710.266 860.335 728.008 862.307 C 743.787 866.337 750.785 875.888 750.904 892.147 C 749.033 890.873 747.767 889.304 746.181 887.643 L 744.817 889.307 C 742.586 888.034 740.404 884.787 739.417 884.611 C 723.395 881.764 705.465 887.398 689.252 884.223 C 682.532 882.907 679.909 885.565 676.597 884.88 L 674.791 880.99 L 672.035 880.163 C 670.911 881.556 671.612 881.183 670.028 881.451 C 670.734 878.278 672.144 876.59 673.914 873.876 L 670.173 872.741 z"/>
<path transform="translate(0,0)" fill="rgb(204,253,249)" d="M 670.173 872.741 C 682.461 857.934 710.266 860.335 728.008 862.307 C 743.787 866.337 750.785 875.888 750.904 892.147 C 749.033 890.873 747.767 889.304 746.181 887.643 L 744.817 889.307 C 737.455 861.441 685.328 861.915 672.035 880.163 C 670.911 881.556 671.612 881.183 670.028 881.451 C 670.734 878.278 672.144 876.59 673.914 873.876 L 670.173 872.741 z"/>
<path transform="translate(0,0)" fill="rgb(1,224,239)" d="M 670.173 872.741 C 682.461 857.934 710.266 860.335 728.008 862.307 C 720.715 867.276 714.916 862.621 709.247 865.492 C 696.004 865.602 684.164 864.21 673.914 873.876 L 670.173 872.741 z"/>
<path transform="translate(0,0)" fill="rgb(23,220,245)" d="M 728.008 862.307 C 743.787 866.337 750.785 875.888 750.904 892.147 C 749.033 890.873 747.767 889.304 746.181 887.643 C 740.945 867.07 727.85 865.696 709.247 865.492 C 714.916 862.621 720.715 867.276 728.008 862.307 z"/>
<path transform="translate(0,0)" fill="rgb(254,254,254)" d="M 1312.14 822.235 C 1314.03 819.578 1317.17 815.862 1319.5 813.484 C 1329.33 803.471 1342.78 797.832 1356.82 797.835 C 1370.17 797.774 1386.48 803.615 1395.89 813.036 C 1414.14 831.312 1410.32 862.766 1410.3 886.778 C 1410.19 907.827 1410.26 928.876 1410.51 949.924 L 1370.97 949.979 L 1371.08 889.431 C 1371.1 877.897 1371.56 866.275 1370.39 854.823 C 1369.42 841.47 1360.59 835.366 1347.75 834.763 C 1338.69 834.338 1330.89 835.024 1325.08 842.94 C 1318.89 851.373 1319.69 862.891 1319.74 872.72 C 1319.82 890.344 1319.89 907.912 1319.97 925.5 L 1320.02 949.914 L 1280.07 949.979 L 1280.12 887.485 C 1280.14 876.547 1281.87 850.16 1275.35 842.872 C 1263.84 830.027 1231.66 831.584 1229.58 853.391 C 1228.37 865.999 1228.65 876.25 1228.68 888.419 L 1228.89 949.951 L 1188.88 949.982 L 1188.87 800.201 L 1225.81 800.05 C 1226.25 806.093 1226.58 812.144 1226.81 818.198 C 1238.97 805.523 1244.99 800.62 1262.93 798.365 C 1284.29 796.142 1300.33 804.927 1312.14 822.235 z"/>
<path transform="translate(0,0)" fill="url(#Gradient1)" d="M 587.181 1138.4 C 612.869 1139.14 638.981 1138.14 664.547 1138.45 C 679.346 1138.62 712.57 1134.7 721.447 1147.27 C 731.051 1160.86 728.495 1194.26 726.363 1210.41 C 722.389 1234.11 708.271 1251.88 689.02 1264.81 C 659.626 1283.91 614.165 1280.46 588.014 1257.38 C 569.575 1241.73 558.971 1216.86 559.019 1192.7 C 559.046 1178.72 556.912 1156.59 566.776 1145.43 C 572.355 1139.12 579.414 1138.85 587.181 1138.4 z"/>
<path transform="translate(0,0)" fill="rgb(42,20,31)" d="M 595.858 1179.44 C 604.648 1181.86 612.31 1199.42 623.196 1203.99 C 638.246 1210.31 658.7 1209.47 670.597 1197.09 C 674.937 1192.57 683.006 1176.98 690.321 1181.25 C 692.641 1187.12 691.203 1190.4 688.982 1196.04 C 679.816 1212.79 666.164 1222.17 646.949 1223.76 C 632.567 1225 618.3 1220.33 607.432 1210.83 C 599.291 1203.81 586.781 1189.81 595.858 1179.44 z"/>
<path transform="translate(0,0)" fill="rgb(247,154,203)" d="M 602.235 1141.5 C 629.319 1140.95 657.632 1143.54 685.15 1141.34 C 696.183 1140.46 714.279 1140.75 717.789 1153.66 L 716.919 1154.58 C 714.066 1154.07 711.385 1151.61 709.58 1149.21 C 705.412 1143.68 694.064 1145.08 686.25 1145.06 C 650.613 1144.84 615.051 1141.64 579.578 1146.65 C 577.322 1146.97 572.098 1152.45 570.395 1154.17 L 569.278 1154.04 C 569.469 1138.85 592.222 1142.27 601.277 1141.58 L 602.235 1141.5 z"/>
<path transform="translate(0,0)" fill="rgb(254,254,254)" d="M 1494.51 798.425 C 1537.23 792.542 1576.62 822.447 1582.42 865.177 C 1588.23 907.907 1558.25 947.235 1515.51 952.96 C 1472.88 958.671 1433.68 928.787 1427.89 886.169 C 1422.1 843.552 1451.91 804.293 1494.51 798.425 z"/>
<path transform="translate(0,0)" fill="rgb(18,28,40)" d="M 1496.61 832.159 C 1518.08 830.307 1533.39 837.036 1539.67 858.898 C 1546.69 883.319 1539.64 912.535 1512.67 919.851 C 1461.62 928.549 1451 845.675 1496.61 832.159 z"/>
<path transform="translate(0,0)" fill="rgb(254,254,254)" d="M 1036.04 744.261 L 1166.16 744.212 L 1166.17 780.393 C 1136.84 779.782 1105.63 780.334 1076.16 780.348 L 1076.25 830.07 L 1154.86 830.066 C 1154.7 841.123 1154.7 852.183 1154.88 863.241 C 1135.63 863.246 1094.29 861.743 1077.48 863.471 C 1075.6 865.856 1076.27 865.941 1076.21 869.75 L 1076.15 914.011 L 1166.21 913.992 L 1166.16 949.932 L 1035.98 949.941 L 1036.04 744.261 z"/>
<path transform="translate(0,0)" fill="rgb(254,254,254)" d="M 1652.96 995.818 L 1692.68 995.911 C 1692.04 1020.15 1691.91 1049.61 1692.97 1073.7 C 1703.95 1062.21 1714.61 1054.49 1731.3 1054.08 C 1746.31 1053.71 1760.56 1057.75 1771.47 1068.45 C 1777.73 1074.6 1782.18 1082.34 1784.36 1090.83 C 1788.18 1105.16 1787.17 1130.28 1787.14 1145.83 L 1787.11 1204.59 L 1747.57 1204.45 C 1747.92 1186.7 1747.72 1168.3 1747.78 1150.5 C 1747.94 1138.02 1750.6 1107.63 1741.77 1098.19 C 1729.67 1085.26 1696.67 1087.99 1693.66 1109.42 C 1691.92 1121.71 1692.42 1133.24 1692.45 1145.71 L 1692.69 1204.67 C 1679.61 1204.39 1666.04 1204.56 1652.92 1204.55 L 1652.96 995.818 z"/>
<path transform="translate(0,0)" fill="rgb(254,254,254)" d="M 1256.26 1054.27 C 1317.36 1047.8 1339.42 1086.79 1339.99 1142.31 L 1276.19 1142.08 C 1267.39 1142.05 1246.06 1141.41 1238.83 1142.96 C 1238.08 1144.43 1237.99 1144.72 1238.1 1146.36 C 1240.15 1175.95 1271.68 1185.02 1294.22 1169.76 C 1298.34 1166.97 1301.06 1163.54 1304.25 1159.87 L 1314.26 1164 L 1334.28 1172.69 C 1322.55 1190.12 1309.76 1202.48 1288.41 1206.51 C 1267.8 1210.3 1246.48 1207.86 1228.91 1195.91 C 1194.22 1172.34 1188.43 1115.56 1211.61 1082.25 C 1222.73 1066.28 1237.08 1057.63 1256.26 1054.27 z"/>
<path transform="translate(0,0)" fill="rgb(18,28,40)" d="M 1264.89 1083.2 C 1289.45 1083.14 1296.93 1093.73 1300.94 1116.81 L 1275.5 1116.8 C 1262.77 1116.85 1250.03 1116.84 1237.3 1116.75 C 1240.11 1097.34 1244.59 1087.34 1264.89 1083.2 z"/>
<path transform="translate(0,0)" fill="rgb(254,254,254)" d="M 1429.58 1054.28 C 1431.53 1054.14 1433.49 1054.07 1435.45 1054.05 C 1449.92 1053.95 1464.33 1058.68 1474.64 1069.17 C 1480.75 1075.5 1485.09 1083.33 1487.21 1091.87 C 1490.96 1106.42 1490.07 1131.33 1490.05 1147 L 1489.98 1204.68 C 1476.82 1204.41 1463.23 1204.51 1450.04 1204.45 C 1450.11 1185.39 1452.99 1117.94 1447 1104.4 C 1444.45 1098.62 1439.92 1093.98 1433.91 1091.86 C 1425.31 1088.83 1413.91 1091.42 1406 1095.41 C 1392.52 1105.02 1395.8 1131.99 1395.83 1147.24 L 1395.93 1204.66 C 1382.81 1204.39 1369.18 1204.54 1356.02 1204.52 L 1356.03 1056.2 C 1368.45 1055.98 1381.31 1056.13 1393.76 1056.13 L 1394.15 1074.52 C 1405.98 1062.41 1412.34 1056.94 1429.58 1054.28 z"/>
<path transform="translate(0,0)" fill="rgb(253,182,30)" d="M 566.379 966.409 C 566.304 963.021 566.266 960.055 566.752 956.68 C 567.938 948.356 572.566 940.914 579.506 936.168 C 590.709 928.424 612.424 929.084 625.648 931.012 C 635 932.376 640.189 937.57 645.209 945.058 C 652.83 961.681 648.425 991.704 649.34 1010.35 C 650.036 1024.55 649.578 1042 649.454 1055.97 C 649.236 1080.6 632.647 1087.99 610.312 1087.97 C 595.449 1087.96 575.658 1087.99 568.83 1070.22 C 565.215 1058.87 565.63 1037.93 566.843 1025.49 C 565.669 1017.29 566.381 976.663 566.379 966.409 z"/>
<path transform="translate(0,0)" fill="rgb(254,154,8)" d="M 645.209 945.058 C 652.83 961.681 648.425 991.704 649.34 1010.35 C 650.036 1024.55 649.578 1042 649.454 1055.97 C 649.236 1080.6 632.647 1087.99 610.312 1087.97 C 595.449 1087.96 575.658 1087.99 568.83 1070.22 C 565.215 1058.87 565.63 1037.93 566.843 1025.49 C 569.212 1040.85 565.705 1048.19 571.104 1066.94 C 600.121 1087.88 653.566 1085.89 646.855 1038.88 C 644.588 1023 650.509 963.624 643.913 952.143 L 643.847 951.363 L 645.209 945.058 z"/>
<path transform="translate(0,0)" fill="rgb(254,192,18)" d="M 566.379 966.409 C 566.304 963.021 566.266 960.055 566.752 956.68 C 567.938 948.356 572.566 940.914 579.506 936.168 C 590.709 928.424 612.424 929.084 625.648 931.012 C 635 932.376 640.189 937.57 645.209 945.058 L 643.847 951.363 L 643.913 952.143 L 642.098 952.068 C 633.976 943.192 629.793 937.146 617.005 937.524 C 606.323 937.839 591.171 935.953 583.044 943.604 C 578.115 948.243 576.214 952.828 572.411 956.313 L 571.709 955.557 C 567.242 961.926 568.04 962.587 568.039 971.448 L 567.383 971.142 C 567.307 970.753 567.23 970.365 567.153 969.976 L 566.379 966.409 z"/>
<path transform="translate(0,0)" fill="rgb(254,245,187)" d="M 571.709 955.557 C 571.939 954.704 572.182 953.854 572.437 953.008 C 577.605 936.053 594.572 933.842 609.903 934.08 C 626.552 934.337 635.945 935.652 643.847 951.363 L 643.913 952.143 L 642.098 952.068 C 633.976 943.192 629.793 937.146 617.005 937.524 C 606.323 937.839 591.171 935.953 583.044 943.604 C 578.115 948.243 576.214 952.828 572.411 956.313 L 571.709 955.557 z"/>
<path transform="translate(0,0)" fill="rgb(254,254,254)" d="M 1568.34 1054.34 C 1608.53 1052.1 1631.36 1068.96 1644.18 1106.73 C 1632.07 1107.32 1617.87 1108.89 1605.63 1109.94 C 1595.67 1085.27 1570.83 1077.83 1552.11 1100.2 C 1543.29 1110.75 1542.85 1130.26 1545.04 1143.53 C 1548.22 1162.73 1564.4 1177.88 1584.82 1172.4 C 1594.94 1169.76 1600.28 1160.99 1605.03 1152.39 C 1609.04 1152.84 1613.77 1152.98 1617.86 1153.21 C 1625.78 1154 1635.8 1154.14 1643.9 1154.47 C 1640.36 1165.48 1637.98 1171.87 1631.41 1181.46 C 1610.28 1212.36 1563.36 1216.32 1533.91 1194.55 C 1517.68 1182.44 1507.07 1164.26 1504.5 1144.17 C 1498.57 1100.08 1522.47 1060.13 1568.34 1054.34 z"/>
<path transform="translate(0,0)" fill="rgb(64,79,96)" d="M 440.765 653.472 C 535.716 651.4 631.292 654.232 726.285 653.83 C 760.133 653.687 793.268 652.817 826.816 657.931 C 828.607 660.115 828.175 658.89 828.12 661.739 C 820.228 661.913 804.017 658.008 792.962 657.719 C 763.516 656.948 734.188 656.957 704.75 656.844 L 511.975 656.181 C 463.908 656.201 419.826 654.872 372.013 660.843 C 365.591 655.353 356.469 664.816 349.507 665.157 C 341.767 665.536 336.216 672.906 329.553 673.779 L 330.361 672.547 C 366.308 651.929 400.694 654.04 440.765 653.472 z"/>
</svg>